<svg id="1" data-name="1" xmlns="http://www.w3.org/2000/svg" viewBox="0 0 100 100"><defs><style>.cls-1{fill:#fff;}</style></defs><path class="cls-1" d="M40.728,79.7956H27.2768a5.1423,5.1423,0,0,1-4.96-4.96V61.3847a9.1319,9.1319,0,0,0,5.4106-2.555,7.2641,7.2641,0,0,0,0-10.5205,9.1322,9.1322,0,0,0-5.4106-2.555V32.303a5.1423,5.1423,0,0,1,4.96-4.96H40.202a11.48,11.48,0,0,1,3.1937-5.11,7.931,7.931,0,0,1,10.5957,0,11.48,11.48,0,0,1,3.1937,5.11H69.81a5.1423,5.1423,0,0,1,4.96,4.96V44.9276a10.2489,10.2489,0,0,1,4.9972,3.344A8.4124,8.4124,0,0,1,81.6829,53.72a7.4164,7.4164,0,0,1-1.9163,5.1851,11.1553,11.1553,0,0,1-4.9972,3.081v12.85a5.1423,5.1423,0,0,1-4.96,4.96H56.3585a8.9065,8.9065,0,0,0-2.5926-5.6736,7.4387,7.4387,0,0,0-10.4453,0A8.9065,8.9065,0,0,0,40.728,79.7956Zm-13.3009-5.11h9.6188a11.741,11.741,0,0,1,5.1851-6.162,13.646,13.646,0,0,1,6.3123-1.7284,13.646,13.646,0,0,1,6.3123,1.7284,11.7415,11.7415,0,0,1,5.1851,6.162h9.6187V57.1765h3.4568a3.4575,3.4575,0,1,0,0-6.9135H69.6594v-17.81H52.15V28.7711a3.4575,3.4575,0,1,0-6.9135,0v3.6822h-17.81v9.6188a12.4412,12.4412,0,0,1,5.5608,18.4108,12.11,12.11,0,0,1-5.5608,4.584Z"/></svg>